<svg xmlns="http://www.w3.org/2000/svg" xmlns:xlink="http://www.w3.org/1999/xlink" version="1.1" x="0px" y="0px" viewBox="0 0 64 80" enable-background="new 0 0 64 64" xml:space="preserve"><g><g><g><g><path d="M19.999,50c-0.553,0-1-0.447-1-1c0-3.309,2.691-6,6-6c0.553,0,1,0.447,1,1s-0.447,1-1,1c-2.206,0-4,1.794-4,4      C20.999,49.553,20.552,50,19.999,50z"/></g><g><path d="M27.999,45h-3c-0.553,0-1-0.447-1-1s0.447-1,1-1h3c0.553,0,1,0.447,1,1S28.552,45,27.999,45z"/></g><g><path d="M19.999,51.44c-0.553,0-1-0.447-1-1V49c0-0.553,0.447-1,1-1s1,0.447,1,1v1.44C20.999,50.993,20.552,51.44,19.999,51.44z      "/></g><g><path d="M43.999,50c-0.553,0-1-0.447-1-1c0-2.206-1.794-4-4-4c-0.553,0-1-0.447-1-1s0.447-1,1-1c3.309,0,6,2.691,6,6      C44.999,49.553,44.552,50,43.999,50z"/></g><g><path d="M38.999,45h-3c-0.553,0-1-0.447-1-1s0.447-1,1-1h3c0.553,0,1,0.447,1,1S39.552,45,38.999,45z"/></g><g><path d="M43.999,51.44c-0.553,0-1-0.447-1-1V49c0-0.553,0.447-1,1-1s1,0.447,1,1v1.44C44.999,50.993,44.552,51.44,43.999,51.44z      "/></g><g><path d="M27.999,45c-0.553,0-1-0.447-1-1v-3.936c0-0.553,0.447-1,1-1s1,0.447,1,1V44C28.999,44.553,28.552,45,27.999,45z"/></g><g><path d="M35.999,45c-0.553,0-1-0.447-1-1v-3.936c0-0.553,0.447-1,1-1s1,0.447,1,1V44C36.999,44.553,36.552,45,35.999,45z"/></g><g><path d="M36.999,19h-6c-0.553,0-1-0.448-1-1s0.447-1,1-1h6c0.553,0,1,0.448,1,1S37.552,19,36.999,19z"/></g><g><g><path d="M31.998,42c-5.514,0-9.999-4.485-9.999-9.998c0-0.552,0.447-1,1-1s1,0.448,1,1c0,4.41,3.588,7.998,7.999,7.998       c4.412,0,8.001-3.588,8.001-7.998c0-0.552,0.447-1,1-1s1,0.448,1,1C41.999,37.515,37.513,42,31.998,42z"/></g><g><path d="M22.999,33.051c-0.553,0-1-0.448-1-1V26c0-0.552,0.447-1,1-1s1,0.448,1,1v6.051       C23.999,32.603,23.552,33.051,22.999,33.051z"/></g><g><path d="M40.999,33.002c-0.553,0-1-0.448-1-1V26c0-0.552,0.447-1,1-1s1,0.448,1,1v6.002       C41.999,32.554,41.552,33.002,40.999,33.002z"/></g><g><path d="M40.999,26.999c-0.553,0-1-0.448-1-1c0-1.654-1.346-2.999-3-2.999c-0.553,0-1-0.448-1-1s0.447-1,1-1       c2.757,0,5,2.243,5,4.999C41.999,26.551,41.552,26.999,40.999,26.999z"/></g><g><path d="M36.999,23c-0.553,0-1-0.448-1-1v-4c0-0.552,0.447-1,1-1s1,0.448,1,1v4C37.999,22.552,37.552,23,36.999,23z"/></g><g><path d="M22.999,27c-0.553,0-1-0.448-1-1c0-4.962,4.037-9,9-9c0.553,0,1,0.448,1,1s-0.447,1-1,1c-3.859,0-7,3.14-7,7       C23.999,26.552,23.552,27,22.999,27z"/></g><g><g><path d="M40.998,30.025c-0.192,0-0.387-0.055-0.559-0.171l-3-2.025c-0.458-0.309-0.578-0.931-0.27-1.388        c0.31-0.457,0.93-0.58,1.389-0.269l3,2.025c0.458,0.309,0.578,0.931,0.27,1.388C41.635,29.871,41.319,30.025,40.998,30.025z"/></g><g><path d="M32.499,29c-3.612,0-6.687-1.008-6.815-1.051c-0.523-0.174-0.807-0.739-0.634-1.263        c0.174-0.524,0.74-0.812,1.264-0.635C26.343,26.061,29.222,27,32.499,27c3.178,0,5.04-0.888,5.059-0.897        c0.493-0.241,1.094-0.038,1.337,0.457c0.243,0.494,0.043,1.09-0.449,1.335C38.354,27.94,36.185,29,32.499,29z"/></g><g><path d="M23,30.025c-0.321,0-0.637-0.154-0.83-0.44c-0.309-0.458-0.188-1.079,0.27-1.388l3-2.025        c0.458-0.311,1.08-0.188,1.389,0.269c0.309,0.458,0.188,1.079-0.27,1.388l-3,2.025C23.387,29.97,23.192,30.025,23,30.025z"/></g></g></g><g><path d="M29.998,46c-0.15,0-0.303-0.034-0.446-0.105l-2-1c-0.494-0.247-0.694-0.848-0.447-1.342      c0.248-0.494,0.849-0.691,1.342-0.447l2,1c0.494,0.247,0.694,0.848,0.447,1.342C30.718,45.798,30.365,46,29.998,46z"/></g><g><path d="M30,46c-0.367,0-0.72-0.202-0.896-0.553c-0.247-0.494-0.047-1.095,0.447-1.342l2-1c0.495-0.244,1.094-0.047,1.342,0.447      c0.247,0.494,0.047,1.095-0.447,1.342l-2,1C30.303,45.966,30.15,46,30,46z"/></g><g><path d="M34,46c-0.367,0-0.72-0.202-0.896-0.553c-0.247-0.494-0.047-1.095,0.447-1.342l2-1c0.494-0.244,1.094-0.047,1.342,0.447      c0.247,0.494,0.047,1.095-0.447,1.342l-2,1C34.303,45.966,34.15,46,34,46z"/></g><g><path d="M33.998,46c-0.15,0-0.303-0.034-0.446-0.105l-2-1c-0.494-0.247-0.694-0.848-0.447-1.342      c0.248-0.494,0.848-0.691,1.342-0.447l2,1c0.494,0.247,0.694,0.848,0.447,1.342C34.718,45.798,34.365,46,33.998,46z"/></g></g><g><path d="M31.999,55c-12.683,0-23-10.317-23-23c0-12.682,10.317-23,23-23s23,10.318,23,23C54.999,44.683,44.682,55,31.999,55z      M31.999,11c-11.579,0-21,9.42-21,21c0,11.579,9.421,21,21,21s21-9.421,21-21C52.999,20.42,43.578,11,31.999,11z"/></g><g><path d="M31.999,64c-0.553,0-1-0.447-1-1v-9c0-0.553,0.447-1,1-1s1,0.447,1,1v9C32.999,63.553,32.552,64,31.999,64z"/></g><g><path d="M31.999,64c-0.256,0-0.512-0.098-0.707-0.293c-0.391-0.391-0.391-1.023,0-1.414l2-2c0.391-0.391,1.023-0.391,1.414,0     s0.391,1.023,0,1.414l-2,2C32.511,63.902,32.255,64,31.999,64z"/></g><g><path d="M31.999,64c-0.256,0-0.512-0.098-0.707-0.293l-2-2c-0.391-0.391-0.391-1.023,0-1.414s1.023-0.391,1.414,0l2,2     c0.391,0.391,0.391,1.023,0,1.414C32.511,63.902,32.255,64,31.999,64z"/></g><g><path d="M31.999,11c-0.553,0-1-0.448-1-1V1c0-0.552,0.447-1,1-1s1,0.448,1,1v9C32.999,10.552,32.552,11,31.999,11z"/></g><g><path d="M29.999,4c-0.256,0-0.512-0.098-0.707-0.293c-0.391-0.391-0.391-1.023,0-1.414l2-2c0.391-0.391,1.023-0.391,1.414,0     s0.391,1.023,0,1.414l-2,2C30.511,3.902,30.255,4,29.999,4z"/></g><g><path d="M33.999,4c-0.256,0-0.512-0.098-0.707-0.293l-2-2c-0.391-0.391-0.391-1.023,0-1.414s1.023-0.391,1.414,0l2,2     c0.391,0.391,0.391,1.023,0,1.414C34.511,3.902,34.255,4,33.999,4z"/></g><g><path d="M58.846,48.5c-0.17,0-0.342-0.043-0.499-0.134l-7.795-4.5c-0.479-0.276-0.643-0.888-0.366-1.366     c0.276-0.478,0.889-0.644,1.366-0.366l7.795,4.5c0.479,0.276,0.643,0.888,0.366,1.366C59.527,48.32,59.191,48.5,58.846,48.5z"/></g><g><path d="M58.846,48.5c-0.441,0-0.845-0.294-0.965-0.741l-0.732-2.732c-0.144-0.533,0.174-1.082,0.707-1.225     c0.534-0.144,1.081,0.173,1.225,0.707l0.732,2.732c0.144,0.533-0.174,1.082-0.707,1.225C59.019,48.489,58.932,48.5,58.846,48.5z"/></g><g><path d="M56.113,49.232c-0.441,0-0.845-0.294-0.965-0.741c-0.144-0.533,0.174-1.082,0.707-1.225l2.732-0.732     c0.533-0.144,1.081,0.173,1.225,0.707c0.144,0.533-0.174,1.082-0.707,1.225l-2.732,0.732     C56.286,49.222,56.199,49.232,56.113,49.232z"/></g><g><path d="M12.946,22c-0.17,0-0.342-0.043-0.499-0.134l-7.794-4.5C4.175,17.09,4.011,16.478,4.287,16     c0.276-0.479,0.888-0.643,1.366-0.366l7.794,4.5c0.479,0.276,0.643,0.888,0.366,1.366C13.628,21.821,13.292,22,12.946,22z"/></g><g><path d="M5.884,20.232c-0.441,0-0.846-0.295-0.965-0.742l-0.731-2.732c-0.143-0.534,0.174-1.082,0.707-1.225     s1.082,0.174,1.225,0.707l0.731,2.732c0.143,0.534-0.174,1.082-0.707,1.225C6.057,20.221,5.97,20.232,5.884,20.232z"/></g><g><path d="M5.152,17.5c-0.441,0-0.846-0.295-0.965-0.742c-0.143-0.533,0.174-1.082,0.707-1.225l2.731-0.732     c0.534-0.142,1.083,0.173,1.225,0.707c0.143,0.533-0.174,1.082-0.707,1.225l-2.731,0.732C5.325,17.489,5.238,17.5,5.152,17.5z"/></g><g><path d="M51.053,22c-0.346,0-0.682-0.179-0.867-0.5c-0.276-0.479-0.112-1.09,0.366-1.366l7.795-4.5     c0.477-0.276,1.089-0.113,1.366,0.366c0.276,0.479,0.112,1.09-0.366,1.366l-7.795,4.5C51.395,21.957,51.223,22,51.053,22z"/></g><g><path d="M58.848,17.5c-0.086,0-0.173-0.011-0.26-0.035l-2.732-0.732c-0.533-0.143-0.85-0.691-0.707-1.225     s0.692-0.851,1.225-0.707l2.732,0.732c0.533,0.143,0.85,0.691,0.707,1.225C59.693,17.205,59.289,17.5,58.848,17.5z"/></g><g><path d="M58.116,20.232c-0.086,0-0.173-0.011-0.26-0.035c-0.533-0.143-0.85-0.691-0.707-1.225l0.731-2.732     c0.143-0.533,0.692-0.848,1.225-0.707c0.533,0.143,0.85,0.691,0.707,1.225l-0.731,2.732     C58.962,19.938,58.558,20.232,58.116,20.232z"/></g><g><path d="M5.154,48.499c-0.346,0-0.682-0.18-0.867-0.5c-0.276-0.479-0.112-1.09,0.366-1.366l7.795-4.499     c0.476-0.277,1.089-0.111,1.366,0.366c0.276,0.479,0.112,1.09-0.366,1.366l-7.795,4.499C5.496,48.456,5.324,48.499,5.154,48.499z     "/></g><g><path d="M7.887,49.231c-0.086,0-0.173-0.011-0.26-0.034l-2.732-0.732c-0.533-0.143-0.851-0.691-0.707-1.225     c0.144-0.534,0.692-0.849,1.225-0.707l2.732,0.732c0.533,0.143,0.851,0.691,0.707,1.225C8.731,48.938,8.328,49.231,7.887,49.231z     "/></g><g><path d="M5.154,48.499c-0.086,0-0.173-0.011-0.26-0.034c-0.533-0.143-0.851-0.691-0.707-1.225l0.732-2.731     c0.144-0.534,0.691-0.85,1.225-0.707s0.851,0.691,0.707,1.225l-0.732,2.731C5.999,48.205,5.596,48.499,5.154,48.499z"/></g></g></g><text x="0" y="79" fill="#000000" font-size="5px" font-weight="bold" font-family="'Helvetica Neue', Helvetica, Arial-Unicode, Arial, Sans-serif">Created by lastspark</text><text x="0" y="84" fill="#000000" font-size="5px" font-weight="bold" font-family="'Helvetica Neue', Helvetica, Arial-Unicode, Arial, Sans-serif">from the Noun Project</text></svg>